<?xml version="1.0" encoding="utf-8"?>
<!-- Generator: Adobe Illustrator 21.1.0, SVG Export Plug-In . SVG Version: 6.00 Build 0)  -->
<svg version="1.1" id="Layer_2" xmlns="http://www.w3.org/2000/svg" xmlns:xlink="http://www.w3.org/1999/xlink" x="0px" y="0px"
	 viewBox="0 0 256 256" style="enable-background:new 0 0 256 256;" xml:space="preserve">
<style type="text/css">
	.st0{fill:#808285;}
</style>
<path class="st0" d="M153.8,46.1l-4,25.2h-59l-3,18.6h-36l-19.2,120h69.6l3-18.6h60l4-25.2h35l19.2-120H153.8z M116.6,158.7
	c-12.3,8.6-24.6,15.9-36,21.6c0,0,0,0,0,0c43.5-30.2,70.9-65.8,61.3-79.6c-4.7-6.8-17.6-7-34.7-1.8c34.8-20.1,65-28,72.2-17.6
	C188.2,93.8,160,128.5,116.6,158.7z"/>
</svg>
