<?xml version="1.0" encoding="utf-8"?>
<!-- Generator: Adobe Illustrator 21.1.0, SVG Export Plug-In . SVG Version: 6.00 Build 0)  -->
<svg version="1.1" id="Layer_2" xmlns="http://www.w3.org/2000/svg" xmlns:xlink="http://www.w3.org/1999/xlink" x="0px" y="0px"
	 viewBox="0 0 256 256" style="enable-background:new 0 0 256 256;" xml:space="preserve">
<style type="text/css">
	.st0{fill:#808285;}
</style>
<g>
	<polygon class="st0" points="86.4,133.1 72.6,146.8 81.4,128.3 75.3,122 50.7,146.8 55.9,152 69.7,138 61.1,157 66.7,162.9 
		91.6,138.3 	"/>
	<path class="st0" d="M95.6,166.5l0.2-0.2c3.8,2.7,6.5,1.6,9.9-1.8c5.4-5.4,2-9.9-3.8-15.8l-5.2-5.2l-24.6,24.8l5.2,5L88,162.6
		l0.9,1.1c1.1,0.9,2.5,4.3,0.7,6.1l-4.3,4.3c-1.1,0.9-2.5,2.5-2.7,4.3l5.2,5.2c0.2-1.8,1.6-3.4,2.7-4.5l3.8-3.8
		C97.9,171.7,98.6,169.4,95.6,166.5z M91.6,159l6.8-6.8c2.7,2.9,3.4,5.4,0.9,7.7C96.8,162.4,94.3,161.7,91.6,159z"/>
	<path class="st0" d="M124.5,185.2c5.9-5.9,3.6-11.3,0.2-14.9c-3.6-3.6-9-5.6-14.9,0.2l-10.6,10.4c-5.9,6.1-3.6,11.5-0.2,14.9
		c3.6,3.6,9,5.9,14.9,0L124.5,185.2z M103.3,191.7c-1.4-1.4-1.4-3.2-0.2-4.3l13.3-13.1c0.9-1.1,2.9-1.1,4.1,0.2
		c1.4,1.1,1.4,3.2,0.2,4.1L107.4,192C106.5,192.9,104.4,193.1,103.3,191.7z"/>
	<polygon class="st0" points="199,103.1 148.2,153.6 138,143.2 188.6,92.7 163.5,67.4 112.8,118.2 118,123.4 163.5,77.8 178.2,92.7 
		127.7,143.2 148.2,164 153.4,158.8 199,113.2 213.8,128.1 147.5,194.2 133.8,208 142.8,189.5 136.7,183.4 111.9,208 117.1,213.2 
		131,199.2 122.2,218.1 128.1,224 152.7,199.4 224,128.1 	"/>
	<polygon class="st0" points="153.2,57.3 128.1,32 55.4,104.7 32,128.1 45.8,141.7 50.5,137.1 41.9,128.6 48,122.5 56.4,130.8 
		60.9,126.1 52.8,117.7 57.3,113.2 65.6,121.8 70.4,117.1 61.6,108.4 61.8,108.5 128.1,42.4 142.8,57.3 92.2,107.8 112.8,128.3 
		118,123.4 102.4,107.8 	"/>
</g>
</svg>
