<?xml version="1.0" standalone="no"?>
<!DOCTYPE svg PUBLIC "-//W3C//DTD SVG 20010904//EN"
 "http://www.w3.org/TR/2001/REC-SVG-20010904/DTD/svg10.dtd">
<svg version="1.0" xmlns="http://www.w3.org/2000/svg"
 width="317.000000pt" height="159.000000pt" viewBox="0 0 317.000000 159.000000"
 preserveAspectRatio="xMidYMid meet">
<metadata>
Created by potrace 1.16, written by Peter Selinger 2001-2019
</metadata>
<g transform="translate(0.000000,159.000000) scale(0.100000,-0.100000)"
fill="#000000" stroke="none">
<path d="M950 931 c0 -60 4 -84 18 -100 23 -29 92 -44 141 -31 60 16 74 39 79
130 4 76 4 80 -17 80 -19 0 -21 -5 -21 -70 0 -57 -4 -74 -20 -90 -24 -24 -86
-27 -118 -4 -19 13 -22 24 -22 90 0 67 -2 74 -20 74 -18 0 -20 -7 -20 -79z"/>
<path d="M1230 900 c0 -89 3 -110 14 -110 9 0 16 12 18 33 3 31 5 32 53 35 46
3 53 0 85 -33 21 -22 43 -35 59 -35 24 0 22 3 -24 50 -46 47 -51 49 -109 52
l-61 3 -3 38 -3 37 79 0 c92 0 114 -13 92 -54 -7 -13 -9 -29 -6 -35 20 -32 61
23 51 69 -10 45 -47 60 -155 60 l-90 0 0 -110z"/>
<path d="M1551 984 c-56 -46 -47 -141 16 -175 34 -18 132 -18 166 0 63 34 72
129 16 175 -26 22 -40 26 -99 26 -59 0 -73 -4 -99 -26z m179 -34 c51 -51 6
-120 -80 -120 -61 0 -100 28 -100 72 0 51 24 68 97 68 50 0 67 -4 83 -20z"/>
<path d="M2280 900 l0 -110 90 0 c83 0 90 2 90 20 0 17 -8 19 -72 22 -70 3
-73 4 -73 28 0 23 4 25 58 28 41 2 57 7 57 17 0 10 -16 15 -57 17 -50 3 -58 6
-58 23 0 18 8 20 73 23 64 3 72 5 72 22 0 18 -7 20 -90 20 l-90 0 0 -110z"/>
<path d="M2518 998 c-27 -22 -30 -53 -8 -81 19 -24 28 -26 103 -29 71 -3 82
-6 85 -22 6 -29 -15 -36 -108 -36 l-85 -1 24 -19 c38 -33 170 -24 193 13 4 7
8 26 8 44 0 47 -29 63 -116 63 -52 0 -73 4 -77 14 -9 23 2 26 86 26 79 0 80 0
62 20 -15 16 -31 20 -85 20 -38 0 -73 -5 -82 -12z"/>
<path d="M2770 900 l0 -110 90 0 c83 0 90 2 90 20 0 17 -8 19 -72 22 -67 3
-73 5 -76 26 -3 21 0 22 57 22 54 0 61 2 61 20 0 16 -8 19 -57 22 -51 3 -58 6
-61 26 -3 21 0 22 72 22 69 0 76 2 76 20 0 19 -7 20 -90 20 l-90 0 0 -110z"/>
<path d="M100 790 l0 -110 141 0 c84 0 149 5 162 11 39 20 57 51 57 102 0 42
-4 53 -31 78 l-31 29 -149 0 -149 0 0 -110z m298 54 c16 -11 22 -25 22 -54 0
-62 -26 -73 -168 -74 l-117 -1 0 30 0 30 73 3 72 3 0 39 0 40 48 0 c27 0 57
-7 70 -16z"/>
</g>
</svg>
